<?xml version="1.0" encoding="UTF-8"?>
<svg version="1.1" xmlns="http://www.w3.org/2000/svg" width="500" height="500">
<path d="M0 0 C1.30582031 -0.00257813 2.61164063 -0.00515625 3.95703125 -0.0078125 C7.1875 0.125 7.1875 0.125 9.1875 1.125 C7.90185822 4.98192534 6.24343068 5.75983972 2.9375 8.0625 C-3.13937718 12.32452602 -8.19311607 16.31777448 -12.8125 22.125 C-11.23662109 21.40183594 -11.23662109 21.40183594 -9.62890625 20.6640625 C6.21576448 13.48444608 21.20633976 9.87976546 38.21875 15.859375 C45.78348465 19.08434082 52.25345767 23.44895951 58.1875 29.125 C58.1875 29.785 58.1875 30.445 58.1875 31.125 C57.38006348 31.11976318 56.57262695 31.11452637 55.74072266 31.10913086 C52.09798962 31.08840071 48.45526898 31.07535251 44.8125 31.0625 C43.54148437 31.05412109 42.27046875 31.04574219 40.9609375 31.03710938 C39.74921875 31.03388672 38.5375 31.03066406 37.2890625 31.02734375 C35.60804443 31.01948853 35.60804443 31.01948853 33.89306641 31.01147461 C31.21882657 30.93878534 31.21882657 30.93878534 29.1875 32.125 C29.96351563 32.26035156 30.73953125 32.39570313 31.5390625 32.53515625 C44.96494029 35.21071901 56.98772207 40.7169563 66.1875 51.125 C66.1875 51.785 66.1875 52.445 66.1875 53.125 C54.6375 53.125 43.0875 53.125 31.1875 53.125 C36.4675 54.445 41.7475 55.765 47.1875 57.125 C58.41235447 62.33240672 66.03068526 69.30709387 72.1875 80.125 C72.8828125 82.9296875 72.8828125 82.9296875 73.1875 85.125 C72.16666667 84.25 71.14583333 83.375 70.125 82.5 C69.48046875 81.95214844 68.8359375 81.40429688 68.171875 80.83984375 C66.93416743 79.77025001 65.71216016 78.68186777 64.515625 77.56640625 C51.39950345 65.54329483 36.04313996 65.32336997 19.16113281 65.93408203 C6.4383561 66.75093026 -8.39070761 72.32613603 -17.8125 81.125 C-19.34302711 83.38907704 -20.69339537 85.55606662 -22 87.9375 C-22.34224609 88.52853516 -22.68449219 89.11957031 -23.03710938 89.72851562 C-28.46936482 99.40109474 -29.68975248 110.26500302 -26.76171875 120.96484375 C-25.91871102 123.29492705 -25.03594282 125.6112808 -24.1015625 127.90625 C-17.1686175 145.21760357 -18.5780606 165.30506752 -22.8125 183.125 C-14.90467389 183.29608278 -8.57669009 181.82918613 -2.61328125 176.38671875 C7.35889721 163.86200871 10.69259333 148.78797894 9.1875 133.125 C7.86483113 126.81262224 5.24873297 122.04662424 0.05859375 118.12890625 C-3.10953436 116.42909639 -5.34512424 116.39151667 -8.8125 117.125 C-11.12417587 119.364436 -11.761858 120.96683952 -11.90234375 124.1796875 C-11.51476041 129.92387136 -9.61895812 134.14580012 -6.8125 139.125 C-12.50700044 138.15276822 -15.01854747 135.22613601 -18.265625 130.7578125 C-22.56103961 123.44693006 -24.05762848 114.90853156 -22.2734375 106.62109375 C-19.35296784 95.8538677 -12.68465226 88.17204272 -3.06640625 82.5078125 C10.31157041 76.09397405 23.11850284 75.71053622 37.1875 80.125 C49.49790565 85.07610706 60.70297904 94.98316744 66.1875 107.125 C73.22061501 124.65013903 74.94961437 142.19458719 67.640625 160.05078125 C64.62074501 166.99488118 61.19003998 173.39934406 56.1875 179.125 C55.51976562 179.92292969 54.85203125 180.72085938 54.1640625 181.54296875 C46.41808016 190.52559038 38.46780172 196.78803144 27.8125 201.9375 C27.04631348 202.31076416 26.28012695 202.68402832 25.49072266 203.06860352 C15.58524166 207.64923885 5.78633737 209.58691026 -5.08886719 209.46557617 C-6.14400513 209.46601425 -7.19914307 209.46645233 -8.28625488 209.46690369 C-11.72749208 209.46483597 -15.16822434 209.44160091 -18.609375 209.41796875 C-21.01360813 209.41236562 -23.41784472 209.40809891 -25.82208252 209.40510559 C-32.11521042 209.39371337 -38.40812686 209.36429495 -44.70117188 209.33099365 C-51.13668966 209.30017104 -57.57224199 209.2865743 -64.0078125 209.27148438 C-76.60946462 209.23941957 -89.210971 209.18887781 -101.8125 209.125 C-101.4825 207.475 -101.1525 205.825 -100.8125 204.125 C-94.77192424 201.85442897 -89.24931228 200.63585812 -82.8125 200.125 C-83.699375 199.465 -84.58625 198.805 -85.5 198.125 C-92.63681633 192.16921711 -95.877589 183.79106674 -96.79296875 174.71484375 C-96.83027694 169.76777788 -95.80149954 164.95556798 -94.8125 160.125 C-95.781875 159.83625 -96.75125 159.5475 -97.75 159.25 C-100.8125 158.125 -100.8125 158.125 -101.8125 156.125 C-102.32770749 149.94251017 -101.77717172 147.13914365 -97.8125 142.125 C-97.1525 141.135 -96.4925 140.145 -95.8125 139.125 C-102.64100626 137.74048003 -109.32001984 136.83513053 -116.28125 136.46875 C-118.8125 136.125 -118.8125 136.125 -121.8125 134.125 C-121.28180939 130.30402761 -120.31548434 128.06328597 -117.8125 125.125 C-120.1225 123.805 -122.4325 122.485 -124.8125 121.125 C-124.65394531 120.43664062 -124.49539062 119.74828125 -124.33203125 119.0390625 C-123.76097637 115.83600281 -123.62839719 112.75028317 -123.5 109.5 C-122.79423278 99.27706877 -119.90537722 90.67130316 -112.8125 83.125 C-111.45071213 81.9840426 -110.07528206 80.85919384 -108.6875 79.75 C-104.73866801 76.47426437 -103.45015056 73.33231903 -101.80078125 68.55859375 C-99.49292098 62.87560185 -95.25831505 58.84790752 -89.8125 56.125 C-88.8125 59.125 -88.8125 59.125 -90.125 61.8125 C-90.681875 62.905625 -91.23875 63.99875 -91.8125 65.125 C-92.60522358 67.775371 -93.20679402 70.42261949 -93.8125 73.125 C-86.5754169 72.20600532 -83.02681082 70.12424424 -77.85546875 65 C-75.8125 63.125 -75.8125 63.125 -73.6640625 62.36328125 C-71.41818351 61.14714214 -71.41818351 61.14714214 -70.79296875 57.66796875 C-70.51908543 56.21791899 -70.25536552 54.76592521 -70 53.3125 C-66.37372622 35.81411428 -55.63969151 21.07235633 -40.8125 11.125 C-28.10478166 3.8524685 -14.67179775 -0.02925583 0 0 Z M2.1875 33.125 C6.1875 34.125 6.1875 34.125 6.1875 34.125 Z M-7.8125 38.125 C-3.88174356 37.55047254 -3.88174356 37.55047254 -0.8125 35.125 C-4.32966303 35.125 -5.18371748 35.94945585 -7.8125 38.125 Z M-11.8125 39.125 C-12.1425 39.785 -12.4725 40.445 -12.8125 41.125 C-11.8225 40.795 -10.8325 40.465 -9.8125 40.125 C-10.4725 39.795 -11.1325 39.465 -11.8125 39.125 Z M-64.8125 62.125 C-70.99446517 66.06444496 -70.99446517 66.06444496 -74.8125 72.125 C-75.14833114 74.93081503 -75.04674047 77.26726622 -74.8125 80.125 C-74.1525 80.785 -73.4925 81.445 -72.8125 82.125 C-72.70292969 81.46113281 -72.59335938 80.79726562 -72.48046875 80.11328125 C-71.39984707 74.09518488 -70.52485607 69.37238075 -65.625 65.3125 C-65.026875 64.920625 -64.42875 64.52875 -63.8125 64.125 C-64.1425 63.465 -64.4725 62.805 -64.8125 62.125 Z M-65.8125 67.125 C-64.8125 69.125 -64.8125 69.125 -64.8125 69.125 Z M-66.8125 69.125 C-67.96490384 72.99378431 -68.94308293 76.78199117 -69.6875 80.75 C-70.3517295 83.94258693 -70.69365303 84.99217103 -72.9375 87.5 C-75.98971479 91.77310071 -75.06052634 95.97845339 -74.8125 101.125 C-70.8525 101.125 -66.8925 101.125 -62.8125 101.125 C-62.4825 100.465 -62.1525 99.805 -61.8125 99.125 C-60.87148437 99.54652344 -59.93046875 99.96804687 -58.9609375 100.40234375 C-57.70328263 100.95608731 -56.44546119 101.50945268 -55.1875 102.0625 C-54.26130859 102.47918945 -54.26130859 102.47918945 -53.31640625 102.90429688 C-49.48823306 104.57660411 -45.95825924 105.6211308 -41.8125 106.125 C-44.92865271 103.59919756 -48.12157437 101.94296025 -51.75 100.25 C-58.61757677 96.86210672 -63.12252068 92.93726952 -66.8125 86.125 C-66.52428714 84.44994112 -66.18349139 82.78369053 -65.8125 81.125 C-65.7465265 79.02176466 -65.72687755 76.91664276 -65.75 74.8125 C-65.75902344 73.74386719 -65.76804687 72.67523438 -65.77734375 71.57421875 C-65.78894531 70.76597656 -65.80054688 69.95773438 -65.8125 69.125 C-66.1425 69.125 -66.4725 69.125 -66.8125 69.125 Z M-74.8125 82.125 C-73.8125 86.125 -73.8125 86.125 -73.8125 86.125 Z M-61.8125 102.125 C-61.503125 103.053125 -61.19375 103.98125 -60.875 104.9375 C-59.63480535 109.16977264 -59.39833691 113.38170609 -59.15625 117.76953125 C-59.02496087 120.31092828 -59.02496087 120.31092828 -56.8125 122.125 C-55.90606168 112.8062778 -55.90606168 112.8062778 -58.75 104.25 C-59.430625 103.54875 -60.11125 102.8475 -60.8125 102.125 C-61.1425 102.125 -61.4725 102.125 -61.8125 102.125 Z M42.1875 109.125 C42.72375 109.90875 43.26 110.6925 43.8125 111.5 C44.6066196 112.70672267 45.39793172 113.91529446 46.1875 115.125 C46.68121094 115.86363281 47.17492187 116.60226562 47.68359375 117.36328125 C53.93210861 127.13340299 55.60725084 136.66007691 56.1875 148.125 C56.5175 148.125 56.8475 148.125 57.1875 148.125 C57.70860028 134.02634253 57.85261779 123.68085791 47.96875 112.71875 C46.13987399 111.08238725 44.42619275 110.10688278 42.1875 109.125 Z M-90.4375 117.625 C-91.94183594 118.59953125 -91.94183594 118.59953125 -93.4765625 119.59375 C-94.24742187 120.0990625 -95.01828125 120.604375 -95.8125 121.125 C-93.43036119 121.95473374 -92.15356905 122.22814333 -89.70703125 121.48828125 C-89.01996094 121.14152344 -88.33289063 120.79476562 -87.625 120.4375 C-86.93019531 120.10363281 -86.23539063 119.76976562 -85.51953125 119.42578125 C-83.40783633 117.81664073 -83.17613205 116.70298841 -82.8125 114.125 C-85.94422017 114.125 -87.84859573 115.93920187 -90.4375 117.625 Z " fill="#07848B" transform="translate(280.8125,144.875)"/>
<path d="M0 0 C12.28948701 9.97298639 20.091927 22.92627334 22.45507812 38.81054688 C23.57682368 58.11751357 19.45083418 76.93625736 6.45507812 91.81054688 C5.78734375 92.60847656 5.11960937 93.40640625 4.43164062 94.22851562 C-3.31434172 103.21113725 -11.26462015 109.47357832 -21.91992188 114.62304688 C-22.6861084 114.99631104 -23.45229492 115.3695752 -24.24169922 115.75415039 C-34.14718021 120.33478573 -43.9460845 122.27245713 -54.82128906 122.15112305 C-55.876427 122.15156113 -56.93156494 122.15199921 -58.01867676 122.15245056 C-61.45991395 122.15038285 -64.90064621 122.12714778 -68.34179688 122.10351562 C-70.74603001 122.09791249 -73.15026659 122.09364579 -75.55450439 122.09065247 C-81.8476323 122.07926024 -88.14054874 122.04984182 -94.43359375 122.01654053 C-100.86911154 121.98571791 -107.30466387 121.97212117 -113.74023438 121.95703125 C-126.34188649 121.92496644 -138.94339288 121.87442469 -151.54492188 121.81054688 C-151.21492187 120.16054688 -150.88492188 118.51054687 -150.54492188 116.81054688 C-144.50434612 114.53997584 -138.98173416 113.32140499 -132.54492188 112.81054688 C-133.43179688 112.15054688 -134.31867188 111.49054688 -135.23242188 110.81054688 C-141.82034436 105.31282433 -145.07289555 97.80990365 -146.23242188 89.43554688 C-147.04027149 80.12974073 -145.08667371 74.30195554 -139.54492188 66.81054688 C-137.00602251 63.99359928 -134.35095351 61.36018984 -131.54492188 58.81054688 C-130.88492188 59.14054687 -130.22492188 59.47054687 -129.54492188 59.81054688 C-129.76148438 60.38160156 -129.97804687 60.95265625 -130.20117188 61.54101562 C-134.21886425 73.24068463 -133.49478947 84.4864908 -128.54492188 95.81054688 C-123.19434746 105.84123061 -114.96904817 112.04379173 -104.40039062 115.98242188 C-98.53160997 117.68444855 -94.80349991 117.98490142 -89.21679688 115.08007812 C-84.04074002 111.85484023 -78.21732554 108.19207671 -75.99414062 102.28710938 C-73.13981455 86.5510856 -77.43704765 71.36899986 -86.29101562 58.21679688 C-91.76412161 50.90463918 -98.30887795 45.73966875 -106.54492188 41.81054688 C-106.29742187 40.38742187 -106.29742187 40.38742187 -106.04492188 38.93554688 C-104.99455889 31.50798006 -105.45001057 24.20119815 -106.54492188 16.81054688 C-100.70665516 15.28752078 -97.39104631 16.34791635 -91.97460938 18.90039062 C-89.33258075 19.89008945 -87.34224058 19.97480224 -84.54492188 19.81054688 C-84.54492188 20.47054687 -84.54492188 21.13054687 -84.54492188 21.81054688 C-81.53398567 19.80325607 -80.9147569 18.97170463 -79.54492188 15.81054688 C-79.51914063 16.65617187 -79.49335938 17.50179687 -79.46679688 18.37304688 C-79.1596294 24.51639642 -78.76021818 29.26230943 -75.66210938 34.58789062 C-66.4791276 52.8575292 -67.95651967 76.50102092 -72.54492188 95.81054688 C-64.63709577 95.98162965 -58.30911196 94.514733 -52.34570312 89.07226562 C-42.37352467 76.54755559 -39.03982854 61.47352582 -40.54492188 45.81054688 C-41.86759074 39.49816912 -44.48368891 34.73217111 -49.67382812 30.81445312 C-52.84195624 29.11464326 -55.07754612 29.07706354 -58.54492188 29.81054688 C-60.85659775 32.04998288 -61.49427988 33.6523864 -61.63476562 36.86523438 C-61.24718229 42.60941823 -59.35137999 46.83134699 -56.54492188 51.81054688 C-62.23942231 50.83831509 -64.75096934 47.91168288 -67.99804688 43.44335938 C-72.29346148 36.13247694 -73.79005035 27.59407843 -72.00585938 19.30664062 C-69.08538972 8.53941457 -62.41707413 0.8575896 -52.79882812 -4.80664062 C-35.36697062 -13.16404181 -15.57237544 -11.98935101 0 0 Z M-7.54492188 21.81054688 C-7.00867188 22.59429687 -6.47242188 23.37804687 -5.91992188 24.18554688 C-5.12580227 25.39226955 -4.33449016 26.60084134 -3.54492188 27.81054688 C-3.05121094 28.54917969 -2.5575 29.2878125 -2.04882812 30.04882812 C4.19968673 39.81894986 5.87482896 49.34562379 6.45507812 60.81054688 C6.78507813 60.81054688 7.11507812 60.81054688 7.45507812 60.81054688 C7.9761784 46.71188941 8.12019592 36.36640479 -1.76367188 25.40429688 C-3.59254789 23.76793413 -5.30622913 22.79242966 -7.54492188 21.81054688 Z " fill="#095E83" transform="translate(330.544921875,232.189453125)"/>
<path d="M0 0 C0 2.90249685 -0.40552372 4.44694177 -1.375 7.125 C-2.49558975 10.32519586 -3.31896445 13.4177094 -3.9375 16.75 C-4.57082587 19.87369199 -4.90233645 20.88753894 -7.0625 23.375 C-10.09314312 27.48103262 -9.82539627 32.01506347 -10 37 C-9.34 36.67 -8.68 36.34 -8 36 C-5.69116277 35.96984727 -3.40065744 36.06653176 -1.09375 36.16015625 C1.22255979 36.21151774 1.22255979 36.21151774 3 34 C7.455 35.98 7.455 35.98 12 38 C10.02 38.99 10.02 38.99 8 40 C8.33 41.051875 8.66 42.10375 9 43.1875 C10.55101582 49.38048461 11.52391904 57.41292903 8.984375 63.390625 C8.49710938 64.18726563 8.49710938 64.18726563 8 65 C8.88945312 65.25910156 9.77890625 65.51820313 10.6953125 65.78515625 C22.75417165 70.21814111 30.76154071 82.26854044 35.96875 93.4921875 C40.0996582 103.53780518 42.81122773 116.7708455 38.875 127.375 C34.90111913 133.72751207 26.55457114 139.62738952 19.43359375 141.7734375 C9.73884279 142.22435615 0.08798414 136.02110764 -7 130 C-15.96985789 120.39493759 -19.43582292 109.2329765 -19.26953125 96.27734375 C-18.8841639 91.5915002 -17.6614777 87.38115845 -16 83 C-20.93955775 86.88616503 -24.5346869 90.75252588 -28 96 C-28.66 96.99 -29.32 97.98 -30 99 C-30 98.01 -30 97.02 -30 96 C-30.969375 95.71125 -31.93875 95.4225 -32.9375 95.125 C-36 94 -36 94 -37 92 C-37.51520749 85.81751017 -36.96467172 83.01414365 -33 78 C-32.34 77.01 -31.68 76.02 -31 75 C-37.82850626 73.61548003 -44.50751984 72.71013053 -51.46875 72.34375 C-54 72 -54 72 -57 70 C-56.46930939 66.17902761 -55.50298434 63.93828597 -53 61 C-53.7734375 60.4740625 -53.7734375 60.4740625 -54.5625 59.9375 C-56 58 -56 58 -56.125 54.9375 C-54.97224659 48.98371866 -50.75729945 43.34370453 -46.203125 39.47265625 C-44.5625 38.375 -44.5625 38.375 -42 37 C-41.34 37.99 -40.68 38.98 -40 40 C-38.68 40 -37.36 40 -36 40 C-36.65585189 36.39007621 -36.65585189 36.39007621 -38 33 C-37.18378174 32.80422363 -37.18378174 32.80422363 -36.35107422 32.60449219 C-33.85588606 31.99860129 -31.36559899 31.3744757 -28.875 30.75 C-28.0190625 30.54503906 -27.163125 30.34007812 -26.28125 30.12890625 C-19.77818824 28.47812904 -15.21419027 26.58322198 -10.75 21.375 C-8.82609034 17.6646028 -8.25266384 14.48467958 -7.55859375 10.40625 C-6.44772435 5.62096641 -4.09730935 2.73153956 0 0 Z M3 38 C3.309375 38.928125 3.61875 39.85625 3.9375 40.8125 C5.17769465 45.04477264 5.41416309 49.25670609 5.65625 53.64453125 C5.78753913 56.18592828 5.78753913 56.18592828 8 58 C8.90643832 48.6812778 8.90643832 48.6812778 6.0625 40.125 C5.381875 39.42375 4.70125 38.7225 4 38 C3.67 38 3.34 38 3 38 Z M-25.625 53.5 C-27.12933594 54.47453125 -27.12933594 54.47453125 -28.6640625 55.46875 C-29.43492187 55.9740625 -30.20578125 56.479375 -31 57 C-28.61786119 57.82973374 -27.34106905 58.10314333 -24.89453125 57.36328125 C-24.20746094 57.01652344 -23.52039063 56.66976562 -22.8125 56.3125 C-22.11769531 55.97863281 -21.42289063 55.64476562 -20.70703125 55.30078125 C-18.59533633 53.69164073 -18.36363205 52.57798841 -18 50 C-21.13172017 50 -23.03609573 51.81420187 -25.625 53.5 Z " fill="#D9E9E3" transform="translate(216,209)"/>
<path d="M0 0 C2.5039302 1.90046501 4.7201019 3.8192279 7 6 C7 6.66 7 7.32 7 8 C6.19256348 7.99476318 5.38512695 7.98952637 4.55322266 7.98413086 C0.91048962 7.96340071 -2.73223102 7.95035251 -6.375 7.9375 C-7.64601563 7.92912109 -8.91703125 7.92074219 -10.2265625 7.91210938 C-11.43828125 7.90888672 -12.65 7.90566406 -13.8984375 7.90234375 C-15.01911621 7.89710693 -16.13979492 7.89187012 -17.29443359 7.88647461 C-19.96867343 7.81378534 -19.96867343 7.81378534 -22 9 C-21.14277344 9.18175781 -20.28554688 9.36351562 -19.40234375 9.55078125 C-13.29599169 10.89321491 -7.62620179 12.25232005 -2 15 C-2 15.33 -2 15.66 -2 16 C-7.3718839 15.45184858 -12.64088437 14.54324423 -17.9375 13.5 C-18.61240479 13.36940186 -19.28730957 13.23880371 -19.98266602 13.10424805 C-24.87900509 12.12099491 -24.87900509 12.12099491 -26 11 C-28.44564214 10.707939 -30.85812844 10.48469632 -33.3125 10.3125 C-33.98990234 10.25255859 -34.66730469 10.19261719 -35.36523438 10.13085938 C-39.18456841 9.85831648 -41.76448742 9.88330953 -45 12 C-49.41933995 14.15301177 -49.41933995 14.15301177 -52.3125 13.390625 C-57.49831474 12.63687286 -61.86880456 16.13058053 -66 19 C-68.40521237 21.93942994 -68.40521237 21.93942994 -70 25 C-72.93527949 28.56993452 -74.23790537 29.83758639 -78.8125 30.8125 C-80.3903125 30.9053125 -80.3903125 30.9053125 -82 31 C-83.45232253 34.57847037 -84.81226545 38.18060107 -86.125 41.8125 C-86.47820312 42.78832031 -86.83140625 43.76414063 -87.1953125 44.76953125 C-87.46085938 45.50558594 -87.72640625 46.24164063 -88 47 C-88.66 47 -89.32 47 -90 47 C-91.19600451 31.75094252 -83.13578104 20.63635688 -73.94921875 9.4375 C-71.64818959 6.56006073 -69.56128707 3.5618117 -67.51953125 0.49609375 C-65.48113204 -1.51086486 -63.78913281 -1.53653631 -61 -2 C-59.45538445 -2.74419952 -57.93448774 -3.53911852 -56.4375 -4.375 C-37.8937078 -13.79710355 -16.9016356 -11.99661548 0 0 Z M-49 10 C-45 11 -45 11 -45 11 Z " fill="#46BEC6" transform="translate(332,168)"/>
<path d="M0 0 C0.33 0 0.66 0 1 0 C1 1.98 1 3.96 1 6 C3.64 5.67 6.28 5.34 9 5 C7 8 7 8 3.5625 9.875 C0.13480019 11.78879906 -1.59358193 13.19439816 -3 17 C-2.99722849 18.60470531 -2.95109491 20.20959752 -2.875 21.8125 C-2.72526091 27.3944405 -4.15683972 30.94019097 -8 35 C-13.25620565 39.05372464 -19.88129218 40.06583677 -26.2421875 41.38671875 C-28.9426383 41.87032326 -28.9426383 41.87032326 -31 43 C-30.34 43.66 -29.68 44.32 -29 45 C-29.375 47.625 -29.375 47.625 -30 50 C-34.75 49.25 -34.75 49.25 -37 47 C-42.28367845 50.57425307 -46.84948805 55.90597045 -48.6015625 62.140625 C-48.93026895 64.22439504 -48.93026895 64.22439504 -49 67 C-50.65 66.67 -52.3 66.34 -54 66 C-53.84144531 65.31164062 -53.68289062 64.62328125 -53.51953125 63.9140625 C-52.94847637 60.71100281 -52.81589719 57.62528317 -52.6875 54.375 C-51.98173278 44.15206877 -49.09287722 35.54630316 -42 28 C-40.63821213 26.8590426 -39.26278206 25.73419384 -37.875 24.625 C-33.92616801 21.34926437 -32.63765056 18.20731903 -30.98828125 13.43359375 C-28.68042098 7.75060185 -24.44581505 3.72290752 -19 1 C-18 4 -18 4 -19.3125 6.6875 C-19.869375 7.780625 -20.42625 8.87375 -21 10 C-21.79272358 12.650371 -22.39429402 15.29761949 -23 18 C-15.7629169 17.08100532 -12.21431082 14.99924424 -7.04296875 9.875 C-5 8 -5 8 -2.78515625 6.9453125 C-2.19605469 6.63335937 -1.60695312 6.32140625 -1 6 C-0.18415432 2.94091587 -0.18415432 2.94091587 0 0 Z " fill="#A78358" transform="translate(210,200)"/>
<path d="M0 0 C2.06660554 0.73975085 4.09552846 1.55068845 6.1328125 2.3671875 C8.47956303 3.16252973 10.54347491 3.23029923 13 3 C13 3.66 13 4.32 13 5 C16.0109362 2.9927092 16.63016497 2.16115776 18 -1 C18.02578125 -0.154375 18.0515625 0.69125 18.078125 1.5625 C18.38529248 7.70584955 18.7847037 12.45176256 21.8828125 17.77734375 C31.06579428 36.04698232 29.58840221 59.69047404 25 79 C25.99 79.495 25.99 79.495 27 80 C25.68 80 24.36 80 23 80 C22.97421875 79.21238281 22.9484375 78.42476563 22.921875 77.61328125 C22.06564643 61.1698008 16.55865237 45.9592989 5 34 C0.63003063 30.44488206 -3.9140111 27.42634333 -9 25 C-8.835 24.05125 -8.67 23.1025 -8.5 22.125 C-7.44963702 14.69743319 -7.9050887 7.39065128 -9 0 C-5.84447122 -1.57776439 -3.41611258 -0.66118308 0 0 Z " fill="#706646" transform="translate(233,249)"/>
<path d="M0 0 C0.66 0.33 1.32 0.66 2 1 C1.7834375 1.57105469 1.566875 2.14210938 1.34375 2.73046875 C-2.67394238 14.43013775 -1.9498676 25.67594393 3 37 C8.37063789 47.06829659 16.57236492 53.13891597 27.11328125 57.19921875 C32.89483081 58.80303155 38.58865936 58.79295001 44 56 C43.01 57.32 42.02 58.64 41 60 C55.85 60.33 70.7 60.66 86 61 C86 61.33 86 61.66 86 62 C51.35 62 16.7 62 -19 62 C-19 60.68 -19 59.36 -19 58 C-12.95942424 55.72942897 -7.43681228 54.51085812 -1 54 C-1.886875 53.34 -2.77375 52.68 -3.6875 52 C-10.27542248 46.50227745 -13.52797368 38.99935678 -14.6875 30.625 C-15.49534962 21.31919385 -13.54175184 15.49140867 -8 8 C-5.46110063 5.18305241 -2.80603164 2.54964296 0 0 Z " fill="#0E5273" transform="translate(199,291)"/>
<path d="M0 0 C0 2.90249685 -0.40552372 4.44694177 -1.375 7.125 C-2.49558975 10.32519586 -3.31896445 13.4177094 -3.9375 16.75 C-4.57082587 19.87369199 -4.90233645 20.88753894 -7.0625 23.375 C-9.70541804 26.95572767 -9.52597339 30.01334185 -9.62890625 34.37890625 C-10.05994486 37.42339998 -11.02240962 38.69780513 -13 41 C-13.69580267 42.31836295 -14.37224433 43.64791086 -15 45 C-15.66 45 -16.32 45 -17 45 C-17.08765625 45.59683594 -17.1753125 46.19367188 -17.265625 46.80859375 C-18.20012599 49.59718448 -19.3665578 50.38244206 -21.75 52.0625 C-22.46929687 52.57167969 -23.18859375 53.08085937 -23.9296875 53.60546875 C-30.45378151 58 -30.45378151 58 -33 58 C-33 58.66 -33 59.32 -33 60 C-38.94 60.495 -38.94 60.495 -45 61 C-45 61.66 -45 62.32 -45 63 C-49.455 63.495 -49.455 63.495 -54 64 C-53.67 63.01 -53.34 62.02 -53 61 C-53.7734375 60.4740625 -53.7734375 60.4740625 -54.5625 59.9375 C-56 58 -56 58 -56.125 54.9375 C-54.97224659 48.98371866 -50.75729945 43.34370453 -46.203125 39.47265625 C-44.5625 38.375 -44.5625 38.375 -42 37 C-41.34 37.99 -40.68 38.98 -40 40 C-38.68 40 -37.36 40 -36 40 C-36.65585189 36.39007621 -36.65585189 36.39007621 -38 33 C-37.18378174 32.80422363 -37.18378174 32.80422363 -36.35107422 32.60449219 C-33.85588606 31.99860129 -31.36559899 31.3744757 -28.875 30.75 C-28.0190625 30.54503906 -27.163125 30.34007812 -26.28125 30.12890625 C-19.77818824 28.47812904 -15.21419027 26.58322198 -10.75 21.375 C-8.82609034 17.6646028 -8.25266384 14.48467958 -7.55859375 10.40625 C-6.44772435 5.62096641 -4.09730935 2.73153956 0 0 Z " fill="#E6EBE6" transform="translate(216,209)"/>
<path d="M0 0 C0.66 0.33 1.32 0.66 2 1 C0.90298766 3.75305016 -0.20224784 6.50229344 -1.3125 9.25 C-1.62123047 10.02730469 -1.92996094 10.80460937 -2.24804688 11.60546875 C-5.41162216 19.3978542 -5.41162216 19.3978542 -8 22 C-12.55915621 22.53637132 -16.29763296 21.73259997 -20.6796875 20.50390625 C-24.53073197 19.66756831 -28.43503481 19.5449406 -32.36328125 19.34375 C-35 19 -35 19 -38 17 C-37.75 14.625 -37.75 14.625 -37 12 C-33.7044247 9.33818918 -30.06660119 9.84359226 -26 10 C-26 9.34 -26 8.68 -26 8 C-23.68941541 6.8447077 -22.19710084 6.86653531 -19.625 6.75 C-12.52421256 6.12893987 -6.31447679 3.15723839 0 0 Z " fill="#12718B" transform="translate(197,262)"/>
<path d="M0 0 C0.7007761 2.36511935 0.99345265 4.13749436 0.875 6.625 C0.91625 7.40875 0.9575 8.1925 1 9 C1.99 9.66 2.98 10.32 4 11 C3.34 11.639375 2.68 12.27875 2 12.9375 C-1.85653744 16.7829235 -5.40833422 20.90924419 -9 25 C-8.67 25.33 -8.34 25.66 -8 26 C-7.67 26.66 -7.34 27.32 -7 28 C-6.34 28 -5.68 28 -5 28 C-4.67 28.99 -4.34 29.98 -4 31 C-4.86625 31.639375 -5.7325 32.27875 -6.625 32.9375 C-11.56240816 37.07741706 -15.93687957 42.54850886 -16.875 49.0625 C-16.91625 50.031875 -16.9575 51.00125 -17 52 C-18.65 51.67 -20.3 51.34 -22 51 C-21.84144531 50.31164062 -21.68289062 49.62328125 -21.51953125 48.9140625 C-20.94847637 45.71100281 -20.81589719 42.62528317 -20.6875 39.375 C-19.91759441 28.22303414 -16.4512675 18.65689501 -7.90625 11.1640625 C-7.1946875 10.57367188 -6.483125 9.98328125 -5.75 9.375 C-2.38019111 6.57754415 -0.8621812 4.41867863 0 0 Z M-5 26 C-4.34 26 -3.68 26 -3 26 C-3 26.66 -3 27.32 -3 28 C-3.66 28 -4.32 28 -5 28 C-5 27.34 -5 26.68 -5 26 Z " fill="#DDAE7F" transform="translate(178,215)"/>
<path d="M0 0 C0.33 0 0.66 0 1 0 C1.03867188 1.2684375 1.03867188 1.2684375 1.078125 2.5625 C1.38529248 8.70584955 1.7847037 13.45176256 4.8828125 18.77734375 C14.06579428 37.04698232 12.58840221 60.69047404 8 80 C8.66 80.33 9.32 80.66 10 81 C8.68 81 7.36 81 6 81 C5.93941406 80.154375 5.87882813 79.30875 5.81640625 78.4375 C5.36040967 72.2640078 4.84179888 66.13310616 4 60 C4.99 59.34 5.98 58.68 7 58 C7.46374345 56.07474636 7.46374345 56.07474636 7.3984375 53.8515625 C7.40439941 53.01641113 7.41036133 52.18125977 7.41650391 51.32080078 C7.40280762 50.43118652 7.38911133 49.54157227 7.375 48.625 C7.36774902 47.72120605 7.36049805 46.81741211 7.35302734 45.88623047 C7.20990447 38.92796961 6.23669546 32.61189001 4 26 C3.608125 24.7625 3.21625 23.525 2.8125 22.25 C2.544375 21.5075 2.27625 20.765 2 20 C1.34 20.66 0.68 21.32 0 22 C-0.66 22 -1.32 22 -2 22 C-2.103125 20.741875 -2.20625 19.48375 -2.3125 18.1875 C-2.69609156 14.86042583 -2.69609156 14.86042583 -4.5625 12.125 C-5.036875 11.75375 -5.51125 11.3825 -6 11 C-6 10.34 -6 9.68 -6 9 C-5.01 8.67 -4.02 8.34 -3 8 C-4.32 6.68 -5.64 5.36 -7 4 C-6.01 4 -5.02 4 -4 4 C-4 4.66 -4 5.32 -4 6 C-0.87525373 4.36526484 -0.87525373 4.36526484 -0.3125 1.875 C-0.209375 1.25625 -0.10625 0.6375 0 0 Z " fill="#646C5C" transform="translate(250,248)"/>
<path d="M0 0 C9.41693977 2.64851431 16.24936217 11.9677495 21 20 C21.72265625 22.8359375 21.72265625 22.8359375 22 25 C20.97916667 24.125 19.95833333 23.25 18.9375 22.375 C18.29296875 21.82714844 17.6484375 21.27929688 16.984375 20.71484375 C15.74666743 19.64525001 14.52466016 18.55686777 13.328125 17.44140625 C3.0541579 8.02360308 -8.48951589 5.7808218 -22 5.375 C-23.59134766 5.31699219 -23.59134766 5.31699219 -25.21484375 5.2578125 C-27.80973067 5.16430306 -30.40462449 5.07855098 -33 5 C-33 4.67 -33 4.34 -33 4 C-29.0208966 3.94131782 -25.04190647 3.9061761 -21.0625 3.875 C-19.94552734 3.85824219 -18.82855469 3.84148437 -17.67773438 3.82421875 C-9.56167417 3.77661722 -2.2645046 4.14784099 5 8 C3.9024777 5.00675737 3.32317108 4.15389099 0.375 2.75 C-0.40875 2.5025 -1.1925 2.255 -2 2 C-1.34 1.34 -0.68 0.68 0 0 Z " fill="#22A1B3" transform="translate(332,205)"/>
<path d="M0 0 C1.67535183 1.3737885 3.26245866 2.8539686 4.828125 4.3515625 C4.828125 5.0115625 4.828125 5.6715625 4.828125 6.3515625 C-9.031875 6.3515625 -22.891875 6.3515625 -37.171875 6.3515625 C-37.171875 6.0215625 -37.171875 5.6915625 -37.171875 5.3515625 C-29.53083999 4.19176254 -21.88889218 4.01959044 -14.171875 3.7890625 C-12.81118711 3.74578115 -11.45050985 3.70216411 -10.08984375 3.65820312 C-6.78394343 3.55269567 -3.47797501 3.45057994 -0.171875 3.3515625 C-1.09613281 2.57039062 -2.02039063 1.78921875 -2.97265625 0.984375 C-3.49255127 0.54496582 -4.01244629 0.10555664 -4.5480957 -0.34716797 C-16.85696456 -10.21128931 -33.38314093 -10.02706527 -48.40039062 -8.40820312 C-49.99499093 -8.18223464 -51.58445755 -7.92031563 -53.171875 -7.6484375 C-37.25067758 -18.26256911 -13.6860695 -10.38762829 0 0 Z " fill="#B0DEE5" transform="translate(334.171875,169.6484375)"/>
<path d="M0 0 C0.66 0.33 1.32 0.66 2 1 C1.01 1.99 0.02 2.98 -1 4 C13.85 4.33 28.7 4.66 44 5 C44 5.33 44 5.66 44 6 C9.35 6 -25.3 6 -61 6 C-61 5.34 -61 4.68 -61 4 C-59.1605481 4.01571045 -59.1605481 4.01571045 -57.28393555 4.03173828 C-52.73855503 4.06791104 -48.19318727 4.09089057 -43.64770508 4.10986328 C-41.67958436 4.11992707 -39.71147862 4.13357934 -37.7434082 4.15087891 C-34.91614082 4.17511059 -32.08907095 4.18647923 -29.26171875 4.1953125 C-27.93970711 4.21079636 -27.93970711 4.21079636 -26.59098816 4.22659302 C-25.77036392 4.22674408 -24.94973969 4.22689514 -24.10424805 4.22705078 C-23.38254929 4.231492 -22.66085052 4.23593323 -21.9172821 4.24050903 C-19.67171069 4.10384647 -19.67171069 4.10384647 -17 2 C-13.40116068 1.8615831 -9.84879387 2.0050402 -6.25 2.125 C-2.85054591 2.27758933 -2.85054591 2.27758933 0 0 Z " fill="#04254A" transform="translate(241,347)"/>
<path d="M0 0 C0.33 0 0.66 0 1 0 C1 1.98 1 3.96 1 6 C3.64 5.67 6.28 5.34 9 5 C7 8 7 8 3.5625 9.875 C0.13480019 11.78879906 -1.59358193 13.19439816 -3 17 C-2.99722849 18.60470531 -2.95109491 20.20959752 -2.875 21.8125 C-2.70027237 27.38714331 -4.34837397 30.8409273 -8 35 C-10.625 37.0625 -10.625 37.0625 -13 38 C-13.99 37.67 -14.98 37.34 -16 37 C-15.195625 36.54625 -14.39125 36.0925 -13.5625 35.625 C-10.91143428 34.25274335 -10.91143428 34.25274335 -10 32 C-9.34 32 -8.68 32 -8 32 C-8 31.01 -8 30.02 -8 29 C-7.34 29 -6.68 29 -6 29 C-6.10699219 28.28714844 -6.21398437 27.57429688 -6.32421875 26.83984375 C-7.11568513 20.51662308 -7.11220299 16.60196539 -4 11 C-4.66 11 -5.32 11 -6 11 C-5.67 10.01 -5.34 9.02 -5 8 C-4.34 7.731875 -3.68 7.46375 -3 7.1875 C-2.01 6.5996875 -2.01 6.5996875 -1 6 C-0.18415432 2.94091587 -0.18415432 2.94091587 0 0 Z " fill="#6E6D5E" transform="translate(210,200)"/>
<path d="M0 0 C0.268125 0.61875 0.53625 1.2375 0.8125 1.875 C1.95556848 4.2995233 1.95556848 4.2995233 5 6 C5 6.66 5 7.32 5 8 C6.98 8 8.96 8 11 8 C11 8.33 11 8.66 11 9 C3.74 9 -3.52 9 -11 9 C-11.33 7.35 -11.66 5.7 -12 4 C-8.04476345 1.24331998 -4.77576339 0.4682121 0 0 Z " fill="#065476" transform="translate(171,271)"/>
<path d="M0 0 C0.33 0 0.66 0 1 0 C1.03738281 0.86882812 1.07476562 1.73765625 1.11328125 2.6328125 C1.4717387 8.91636082 1.9589856 13.42480694 5 19 C5.53128156 21.98907941 5.80485185 24.97183912 6 28 C3.20766929 25.44722581 2.51032394 23.77639718 2 20 C1.34 20.66 0.68 21.32 0 22 C-0.66 22 -1.32 22 -2 22 C-2.103125 20.741875 -2.20625 19.48375 -2.3125 18.1875 C-2.69609156 14.86042583 -2.69609156 14.86042583 -4.5625 12.125 C-5.036875 11.75375 -5.51125 11.3825 -6 11 C-6 10.34 -6 9.68 -6 9 C-5.01 8.67 -4.02 8.34 -3 8 C-4.32 6.68 -5.64 5.36 -7 4 C-6.01 4 -5.02 4 -4 4 C-4 4.66 -4 5.32 -4 6 C-0.87525373 4.36526484 -0.87525373 4.36526484 -0.3125 1.875 C-0.209375 1.25625 -0.10625 0.6375 0 0 Z " fill="#40554D" transform="translate(250,248)"/>
<path d="M0 0 C6.50568171 2.03302553 12.59288853 6.85836995 17 12 C17 12.66 17 13.32 17 14 C6.44 13.67 -4.12 13.34 -15 13 C-15 12.67 -15 12.34 -15 12 C-2.13 11.01 -2.13 11.01 11 10 C7.84310308 7.63232731 4.65893529 5.38764334 1.390625 3.18359375 C0.93171875 2.79300781 0.4728125 2.40242187 0 2 C0 1.34 0 0.68 0 0 Z " fill="#6DC3CC" transform="translate(330,184)"/>
<path d="M0 0 C0 2.90249685 -0.40552372 4.44694177 -1.375 7.125 C-2.49558975 10.32519586 -3.31896445 13.4177094 -3.9375 16.75 C-4.74295499 20.68089571 -6.16964813 23.07530306 -9 26 C-9.66 25.67 -10.32 25.34 -11 25 C-10.71125 24.05125 -10.4225 23.1025 -10.125 22.125 C-9.23605029 19.08158188 -8.65445282 16.06221708 -8.125 12.9375 C-7.24252657 8.37226343 -5.95606967 5.58311475 -3 2 C-2.01 1.34 -1.02 0.68 0 0 Z " fill="#C4B39B" transform="translate(216,209)"/>
<path d="M0 0 C-1.4638611 4.39158329 -3.97831338 4.87947433 -8 7 C-8 6.01 -8 5.02 -8 4 C-7.01 4 -6.02 4 -5 4 C-5.33 3.01 -5.66 2.02 -6 1 C-8.64 1 -11.28 1 -14 1 C-14 1.33 -14 1.66 -14 2 C-14.92941406 2.06058594 -15.85882813 2.12117187 -16.81640625 2.18359375 C-25.94146885 2.79571552 -25.94146885 2.79571552 -35 4 C-27.54890162 -0.96739892 -8.3873077 -4.19365385 0 0 Z " fill="#80C4CB" transform="translate(290,146)"/>
<path d="M0 0 C4.95 1.98 4.95 1.98 10 4 C8.02 4.99 8.02 4.99 6 6 C6.33 7.051875 6.66 8.10375 7 9.1875 C8.45881485 15.00191921 8.55368814 21.04785247 8 27 C7.34 27.99 6.68 28.98 6 30 C5.34 30 4.68 30 4 30 C4.15726563 29.49984375 4.31453125 28.9996875 4.4765625 28.484375 C5.83850454 22.02023219 6.38121535 13.40957355 3.8828125 7.2421875 C2.56066433 5.14053538 2.56066433 5.14053538 1.09375 3.3828125 C0 2 0 2 0 0 Z " fill="#C3B096" transform="translate(218,243)"/>
<path d="M0 0 C14.53331056 -0.36282883 14.53331056 -0.36282883 21 2 C22.81007205 2.54972558 24.62274127 3.09094966 26.4375 3.625 C27.95847052 4.08287786 29.47935206 4.54105193 31 5 C31 5.33 31 5.66 31 6 C24.36243278 6.30473766 18.08575633 5.14592515 11.5625 4 C9.8928418 3.71382812 9.8928418 3.71382812 8.18945312 3.421875 C5.45870097 2.95307635 2.72898129 2.47898096 0 2 C0 1.34 0 0.68 0 0 Z " fill="#63BEC7" transform="translate(297,197)"/>
<path d="M0 0 C0.91356827 3.08329292 1.08225564 5.79202988 1 9 C1 9.99 1 10.98 1 12 C-0.96875 13.82421875 -0.96875 13.82421875 -3.5 15.6875 C-4.3353125 16.31011719 -5.170625 16.93273437 -6.03125 17.57421875 C-7.00578125 18.27998047 -7.00578125 18.27998047 -8 19 C-8.33 18.01 -8.66 17.02 -9 16 C-8.34 16 -7.68 16 -7 16 C-7.33 14.35 -7.66 12.7 -8 11 C-7.05125 10.29875 -6.1025 9.5975 -5.125 8.875 C-2.00145374 6.30396782 -0.92618704 3.98260427 0 0 Z " fill="#C49F79" transform="translate(178,215)"/>
<path d="M0 0 C-0.99 0.33 -1.98 0.66 -3 1 C-3 1.66 -3 2.32 -3 3 C-8.94 3.495 -8.94 3.495 -15 4 C-15 4.66 -15 5.32 -15 6 C-19.455 6.495 -19.455 6.495 -24 7 C-23.67 5.68 -23.34 4.36 -23 3 C-18.03279847 0.14332616 -12.61880307 -0.22034522 -7 0 C-5.88625 -0.2784375 -5.88625 -0.2784375 -4.75 -0.5625 C-3 -1 -3 -1 0 0 Z " fill="#E4EFF0" transform="translate(186,266)"/>
<path d="M0 0 C5.02111242 4.73419171 10.34550692 9.80057615 11 17 C6.33333333 13 1.66666667 9 -3 5 C-2.34 4.67 -1.68 4.34 -1 4 C-0.34 4.33 0.32 4.66 1 5 C0.67 3.35 0.34 1.7 0 0 Z " fill="#81BFC4" transform="translate(343,213)"/>
<path d="M0 0 C0.66 0.33 1.32 0.66 2 1 C1.34 1.639375 0.68 2.27875 0 2.9375 C-5.84079859 8.8115795 -11.21327254 14.58432539 -15 22 C-15.96950842 19.43814744 -16.11517704 18.30644389 -15.13671875 15.703125 C-11.13184211 8.92398072 -6.40650467 4.53266536 0 0 Z " fill="#F2E6D6" transform="translate(180,225)"/>
<path d="M0 0 C0.33 0 0.66 0 1 0 C2.93107039 13.61309028 2.93107039 13.61309028 -0.125 18.6875 C-2.35124113 21.56924547 -4.56087355 23.64245008 -8 25 C-8.99 24.67 -9.98 24.34 -11 24 C-10.195625 23.54625 -9.39125 23.0925 -8.5625 22.625 C-5.91143428 21.25274335 -5.91143428 21.25274335 -5 19 C-4.34 19 -3.68 19 -3 19 C-3 18.01 -3 17.02 -3 16 C-2.34 16 -1.68 16 -1 16 C-1.09539062 15.26394531 -1.19078125 14.52789062 -1.2890625 13.76953125 C-1.39992187 12.79371094 -1.51078125 11.81789062 -1.625 10.8125 C-1.74101562 9.84957031 -1.85703125 8.88664063 -1.9765625 7.89453125 C-2.00194942 4.75924677 -1.34359283 2.80513465 0 0 Z " fill="#7B735C" transform="translate(205,213)"/>
<path d="M0 0 C-0.55067061 3.81233501 -2.12238732 5.3398714 -4.9375 7.875 C-8.2468084 11.03630713 -10.07825095 13.39125474 -11 18 C-11.66 18 -12.32 18 -13 18 C-12.44364938 12.15831845 -7.13563986 0 0 0 Z " fill="#487D94" transform="translate(273,232)"/>
<path d="M0 0 C-1.12451727 2.9719385 -2.22293791 5.33440687 -4 8 C-7.85119054 8.28527337 -11.30992118 8.18082522 -15 7 C-15 6.34 -15 5.68 -15 5 C-13.948125 4.9175 -12.89625 4.835 -11.8125 4.75 C-6.99698271 3.80268512 -4.70425241 0 0 0 Z " fill="#26556E" transform="translate(193,276)"/>
<path d="M0 0 C8.78344951 -0.50458114 16.98226235 0.28006315 24 6 C18.63690967 5.45274588 13.35723727 4.57021414 8.0625 3.5625 C7.05014282 3.37917114 7.05014282 3.37917114 6.01733398 3.19213867 C4.33033785 2.86194828 2.66224391 2.43809455 1 2 C0.67 1.34 0.34 0.68 0 0 Z " fill="#2FA1B0" transform="translate(306,178)"/>
<path d="M0 0 C3.9791034 -0.05868218 7.95809353 -0.0938239 11.9375 -0.125 C13.05447266 -0.14175781 14.17144531 -0.15851563 15.32226562 -0.17578125 C31.26351731 -0.26927833 31.26351731 -0.26927833 36.5625 4.125 C37.036875 4.74375 37.51125 5.3625 38 6 C36.87851562 5.69255859 36.87851562 5.69255859 35.734375 5.37890625 C34.74953125 5.10949219 33.7646875 4.84007812 32.75 4.5625 C31.77546875 4.29566406 30.8009375 4.02882812 29.796875 3.75390625 C28.87390625 3.50511719 27.9509375 3.25632813 27 3 C26.39414062 2.82597656 25.78828125 2.65195313 25.1640625 2.47265625 C22.61215502 1.91529018 20.18835376 1.78510265 17.578125 1.68359375 C16.04091797 1.62075195 16.04091797 1.62075195 14.47265625 1.55664062 C13.40917969 1.51732422 12.34570312 1.47800781 11.25 1.4375 C10.17105469 1.39431641 9.09210938 1.35113281 7.98046875 1.30664062 C5.32043572 1.20071011 2.66031188 1.09863579 0 1 C0 0.67 0 0.34 0 0 Z " fill="#8BD0D7" transform="translate(299,209)"/>
<path d="M0 0 C0.99 0 1.98 0 3 0 C2.01 4.62 1.02 9.24 0 14 C1.98 14 3.96 14 6 14 C6 14.99 6 15.98 6 17 C3.36 17 0.72 17 -2 17 C-2.22084624 10.90218999 -2.01167675 5.78357065 0 0 Z " fill="#35747A" transform="translate(213,189)"/>
<path d="M0 0 C0.66 0.33 1.32 0.66 2 1 C1.01 4.3 0.02 7.6 -1 11 C-1.66 9.68 -2.32 8.36 -3 7 C-3.598125 7.928125 -4.19625 8.85625 -4.8125 9.8125 C-6.45272845 12.20254718 -7.8718917 14.08470253 -10 16 C-10.09034097 11.75397448 -9.71063519 9.84739895 -6.9296875 6.53125 C-4.66904494 4.2918674 -2.37572963 2.11655913 0 0 Z " fill="#19798D" transform="translate(199,291)"/>
<path d="M0 0 C3.96 0 7.92 0 12 0 C8.99382731 3.00617269 6.17618402 2.59585316 2 3 C1.79375 3.680625 1.5875 4.36125 1.375 5.0625 C-0.45408866 8.97009851 -3.10279034 11.83857939 -6 15 C-6 10.97968232 -4.21017512 9.31526268 -2 6 C-0.75675853 2.7750792 -0.75675853 2.7750792 0 0 Z " fill="#0E324D" transform="translate(256,329)"/>
<path d="M0 0 C4.35330092 6.52995138 5.43664818 14.28588216 5 22 C4.34 22.33 3.68 22.66 3 23 C2.49187886 20.48056604 1.99335466 17.95983127 1.5 15.4375 C1.35691406 14.73302734 1.21382813 14.02855469 1.06640625 13.30273438 C0.19125075 8.78109762 -0.14523405 4.60512972 0 0 Z " fill="#586C63" transform="translate(255,269)"/>
<path d="M0 0 C5.01701369 5.01701369 5.16011524 13.78206504 5.20654297 20.56201172 C5.17914091 23.71043745 5.10782049 26.8532389 5 30 C4.67 30 4.34 30 4 30 C3.96261719 29.21238281 3.92523438 28.42476563 3.88671875 27.61328125 C3.45320389 20.43053508 2.42118375 13.74515625 0.62109375 6.77734375 C0 4 0 4 0 0 Z " fill="#86BCCB" transform="translate(348,257)"/>
<path d="M0 0 C5.08991767 3.87244457 9.4185806 8.03046763 12 14 C11.67 14.66 11.34 15.32 11 16 C8.66475218 13.74259377 6.81294927 11.7194239 5 9 C5 8.01 5 7.02 5 6 C2.525 5.01 2.525 5.01 0 4 C0 2.68 0 1.36 0 0 Z " fill="#579CB3" transform="translate(334,236)"/>
<path d="M0 0 C0.66 0.33 1.32 0.66 2 1 C0.125 6.75 0.125 6.75 -1 9 C-5 9 -5 9 -8 8 C-5.58443874 4.80800833 -3.31996462 2.25283313 0 0 Z " fill="#A48B6E" transform="translate(190,201)"/>
<path d="M0 0 C7.64365552 -0.38866045 14.68139457 0.71096702 22 3 C22.66 3.66 23.32 4.32 24 5 C23.01 5.33 22.02 5.66 21 6 C21 5.34 21 4.68 21 4 C20.07316406 3.93941406 19.14632813 3.87882813 18.19140625 3.81640625 C16.39509766 3.69072266 16.39509766 3.69072266 14.5625 3.5625 C13.36753906 3.48128906 12.17257812 3.40007812 10.94140625 3.31640625 C8 3 8 3 7 2 C4.67182036 1.63239269 2.3381615 1.29758419 0 1 C0 0.67 0 0.34 0 0 Z " fill="#6EA7B9" transform="translate(296,222)"/>
<path d="M0 0 C6.03491509 1.88591096 11.50401226 5.75601839 15 11 C14.01 11.33 13.02 11.66 12 12 C11.319375 11.278125 10.63875 10.55625 9.9375 9.8125 C7.83993751 7.69082759 5.65004857 5.99424049 3.1875 4.3125 C2.135625 3.549375 1.08375 2.78625 0 2 C0 1.34 0 0.68 0 0 Z " fill="#55B4C2" transform="translate(330,184)"/>
<path d="M0 0 C0.33 0.99 0.66 1.98 1 3 C-1.31 5.31 -3.62 7.62 -6 10 C-6.99 9.67 -7.98 9.34 -9 9 C-8.34 8.05125 -7.68 7.1025 -7 6.125 C-4.82031543 3.33761045 -4.82031543 3.33761045 -5 1 C-2 0 -2 0 0 0 Z " fill="#4BB1B6" transform="translate(263,188)"/>
<path d="M0 0 C2.98165259 2.46310431 3.50886941 4.20125526 4 8 C4.02219623 11.07144865 3.86610098 14.12192428 3.6875 17.1875 C3.63432617 18.41629883 3.63432617 18.41629883 3.58007812 19.66992188 C3.2444945 25.7555055 3.2444945 25.7555055 1 28 C1.00523682 27.43603516 1.01047363 26.87207031 1.01586914 26.29101562 C1.03687267 23.69402211 1.04973362 21.09704656 1.0625 18.5 C1.07087891 17.613125 1.07925781 16.72625 1.08789062 15.8125 C1.10763596 10.44176914 0.78835893 5.31366337 0 0 Z " fill="#7D9FB2" transform="translate(289,270)"/>
<path d="M0 0 C0.33 0 0.66 0 1 0 C1.63019694 9.01531729 1.63019694 9.01531729 -1 13.125 C-1.66 13.74375 -2.32 14.3625 -3 15 C-3.66 14.67 -4.32 14.34 -5 14 C-4.34 11.69 -3.68 9.38 -3 7 C-2.34 7 -1.68 7 -1 7 C-1.020625 6.030625 -1.04125 5.06125 -1.0625 4.0625 C-1 1 -1 1 0 0 Z " fill="#B49775" transform="translate(210,220)"/>
<path d="M0 0 C0.66 0.33 1.32 0.66 2 1 C0.68 1.33 -0.64 1.66 -2 2 C-2 2.66 -2 3.32 -2 4 C-6.04453527 7.03340145 -10.15195009 7.93178561 -15 9 C-12.7445814 5.43881274 -10.95109129 4.34696294 -7 3 C-5.76894751 2.44163926 -4.5398438 1.87896637 -3.3125 1.3125 C-1.6728125 0.6628125 -1.6728125 0.6628125 0 0 Z " fill="#84D1D6" transform="translate(279,162)"/>
<path d="M0 0 C1.37140038 0.01987537 2.7426453 0.05555764 4.11328125 0.10546875 C4.81517578 0.11900391 5.51707031 0.13253906 6.24023438 0.14648438 C7.96907954 0.18176693 9.6975289 0.23557292 11.42578125 0.29296875 C11.09578125 1.28296875 10.76578125 2.27296875 10.42578125 3.29296875 C4.81578125 3.29296875 -0.79421875 3.29296875 -6.57421875 3.29296875 C-3.57421875 0.29296875 -3.57421875 0.29296875 0 0 Z " fill="#093E5E" transform="translate(227.57421875,348.70703125)"/>
<path d="M0 0 C0.66 0.33 1.32 0.66 2 1 C1.67 1.66 1.34 2.32 1 3 C-0.32 3 -1.64 3 -3 3 C-3 3.66 -3 4.32 -3 5 C-3.99 5 -4.98 5 -6 5 C-6 5.66 -6 6.32 -6 7 C-8.875 7.625 -8.875 7.625 -12 8 C-12.66 7.34 -13.32 6.68 -14 6 C-13.15695313 5.65066406 -12.31390625 5.30132812 -11.4453125 4.94140625 C-10.34960938 4.48636719 -9.25390625 4.03132813 -8.125 3.5625 C-7.03445312 3.11003906 -5.94390625 2.65757812 -4.8203125 2.19140625 C-3.19441376 1.50456537 -1.57868226 0.78934113 0 0 Z " fill="#6EABB3" transform="translate(197,262)"/>
<path d="M0 0 C4.95 1.98 4.95 1.98 10 4 C8.02 4.99 8.02 4.99 6 6 C6.33 7.65 6.66 9.3 7 11 C4.08156555 8.373409 2.05482685 5.33023661 0 2 C0 1.34 0 0.68 0 0 Z " fill="#A79881" transform="translate(218,243)"/>
<path d="M0 0 C0.66 0.66 1.32 1.32 2 2 C-1.97234814 5.0753663 -5.08323953 5.32551243 -9.9140625 5.30078125 C-12 5 -12 5 -15 3 C-9.58461538 1.76923077 -9.58461538 1.76923077 -6.625 2.9375 C-6.08875 3.288125 -5.5525 3.63875 -5 4 C-5 3.34 -5 2.68 -5 2 C-3.35 1.34 -1.7 0.68 0 0 Z " fill="#98D0C8" transform="translate(241,345)"/>
<path d="M0 0 C1.69242399 2.95502601 2.27328801 5.09995022 2.25 8.5 C2.25515625 9.2528125 2.2603125 10.005625 2.265625 10.78125 C1.97250404 13.2296721 1.21816769 14.87304054 0 17 C-1.37745568 11.49017726 -1.8198497 5.45954909 0 0 Z " fill="#608698" transform="translate(259,250)"/>
<path d="M0 0 C0.33 0 0.66 0 1 0 C1 3.63 1 7.26 1 11 C-3.1424367 9.61918777 -4.32203099 7.40174442 -7 4 C-6.01 4 -5.02 4 -4 4 C-4 4.66 -4 5.32 -4 6 C-0.87525373 4.36526484 -0.87525373 4.36526484 -0.3125 1.875 C-0.209375 1.25625 -0.10625 0.6375 0 0 Z " fill="#136065" transform="translate(250,248)"/>
<path d="M0 0 C1.65 0.33 3.3 0.66 5 1 C4.67 2.65 4.34 4.3 4 6 C2.35 5.67 0.7 5.34 -1 5 C-0.67 3.35 -0.34 1.7 0 0 Z " fill="#111111" transform="translate(176,244)"/>
<path d="M0 0 C0.66 1.32 1.32 2.64 2 4 C1.34 4 0.68 4 0 4 C0.33 5.32 0.66 6.64 1 8 C0.01 8.495 0.01 8.495 -1 9 C-1 8.34 -1 7.68 -1 7 C-2.65 7.66 -4.3 8.32 -6 9 C-4.68775452 5.06326356 -3.08089673 2.77280706 0 0 Z " fill="#D3B495" transform="translate(169,227)"/>
<path d="M0 0 C1.58971965 2.38457948 2.86741593 4.6304124 4.125 7.1875 C4.47820312 7.90292969 4.83140625 8.61835938 5.1953125 9.35546875 C5.46085937 9.89816406 5.72640625 10.44085938 6 11 C0.33846154 9.52307692 0.33846154 9.52307692 -1.375 6.875 C-1.58125 6.25625 -1.7875 5.6375 -2 5 C-1.34 5 -0.68 5 0 5 C0 3.35 0 1.7 0 0 Z " fill="#708897" transform="translate(268,273)"/>
<path d="M0 0 C0.66 0.66 1.32 1.32 2 2 C-0.52704327 7.21202675 -4.61773359 10.3880132 -9 14 C-9 9.82438593 -7.16647522 8.46042213 -4.5 5.3125 C-3.6646875 4.31863281 -2.829375 3.32476562 -1.96875 2.30078125 C-0.99421875 1.16189453 -0.99421875 1.16189453 0 0 Z " fill="#CAA072" transform="translate(178,228)"/>
<path d="M0 0 C3 1 3 1 4.203125 2.7421875 C4.54859375 3.44601562 4.8940625 4.14984375 5.25 4.875 C5.60578125 5.57367188 5.9615625 6.27234375 6.328125 6.9921875 C7 9 7 9 6 12 C4.99157547 10.56839732 3.99352109 9.12948547 3 7.6875 C2.1646875 6.48673828 2.1646875 6.48673828 1.3125 5.26171875 C0 3 0 3 0 0 Z " fill="#46657B" transform="translate(187,329)"/>
<path d="M0 0 C4.99275057 1.27721526 7.57611908 3.17330957 11 7 C6.93297895 7 6.29578979 6.87680186 3.25 4.625 C2.63640625 4.18414062 2.0228125 3.74328125 1.390625 3.2890625 C0.93171875 2.86367187 0.4728125 2.43828125 0 2 C0 1.34 0 0.68 0 0 Z " fill="#4B93AC" transform="translate(320,227)"/>
<path d="M0 0 C0.66 0 1.32 0 2 0 C0.82911989 4.97624046 -0.34623308 8.23876935 -4 12 C-6.25 13.3125 -6.25 13.3125 -8 14 C-6.80523076 11.17599997 -5.46318334 9.37153171 -3.4375 7 C-1.3321887 4.40884763 -0.37095196 3.214917 0 0 Z " fill="#A6D0CD" transform="translate(254,330)"/>
<path d="M0 0 C0.33 0 0.66 0 1 0 C1 1.98 1 3.96 1 6 C1.66 6 2.32 6 3 6 C2.67 9.63 2.34 13.26 2 17 C-0.49118953 13.2632157 -0.2065226 11.25548181 -0.125 6.8125 C-0.10695312 5.54019531 -0.08890625 4.26789063 -0.0703125 2.95703125 C-0.04710937 1.98121094 -0.02390625 1.00539062 0 0 Z " fill="#0B9593" transform="translate(241,209)"/>
<path d="M0 0 C0.66 0.66 1.32 1.32 2 2 C1.01 3.485 1.01 3.485 0 5 C-2.6015625 5.51171875 -2.6015625 5.51171875 -5.625 5.6875 C-7.12933594 5.78611328 -7.12933594 5.78611328 -8.6640625 5.88671875 C-9.82035156 5.94279297 -9.82035156 5.94279297 -11 6 C-11 5.34 -11 4.68 -11 4 C-9.9275 3.896875 -8.855 3.79375 -7.75 3.6875 C-4.14179128 3.02599507 -2.63604977 2.42516579 0 0 Z " fill="#175778" transform="translate(189,277)"/>
<path d="M0 0 C4.85077588 1.11940982 7.777893 2.1334716 11 6 C7.87709365 5.51421457 5.00419641 5.0013988 2 4 C2 3.34 2 2.68 2 2 C1.34 2 0.68 2 0 2 C0 1.34 0 0.68 0 0 Z " fill="#848E84" transform="translate(237,251)"/>
<path d="M0 0 C4.43458973 1.3937282 6.87378374 3.60582235 10 7 C9.01 7.495 9.01 7.495 8 8 C8 7.34 8 6.68 8 6 C7.278125 5.71125 6.55625 5.4225 5.8125 5.125 C3.20833333 4.08333333 0.60416667 3.04166667 -2 2 C-1.34 1.34 -0.68 0.68 0 0 Z " fill="#59B4C0" transform="translate(332,205)"/>
<path d="M0 0 C0.33 0 0.66 0 1 0 C1 1.98 1 3.96 1 6 C3.64 5.67 6.28 5.34 9 5 C8.01 6.485 8.01 6.485 7 8 C5.0546875 8.29296875 5.0546875 8.29296875 2.875 8.1875 C0.956875 8.0946875 0.956875 8.0946875 -1 8 C-0.67 5.36 -0.34 2.72 0 0 Z " fill="#7E918C" transform="translate(210,200)"/>
<path d="M0 0 C0.33 0.99 0.66 1.98 1 3 C-0.58133449 6.16266898 -2.38114512 8.63055987 -5 11 C-4.50769231 4.6 -4.50769231 4.6 -1.9375 1.5625 C-0.9784375 0.7890625 -0.9784375 0.7890625 0 0 Z " fill="#0F6D8A" transform="translate(194,296)"/>
<path d="M0 0 C0.33 0 0.66 0 1 0 C1.268125 1.051875 1.53625 2.10375 1.8125 3.1875 C2.8676829 6.57519246 4.04726378 9.07089567 6 12 C5.01 12.495 5.01 12.495 4 13 C-1.05908096 5.9452954 -1.05908096 5.9452954 -0.8125 2 C-0.544375 1.34 -0.27625 0.68 0 0 Z " fill="#456E72" transform="translate(214,226)"/>
<path d="M0 0 C4.38889325 0.66498383 7.9811485 2.18757677 12 4 C12 4.33 12 4.66 12 5 C10.741875 4.87625 9.48375 4.7525 8.1875 4.625 C7.12595703 4.52058594 7.12595703 4.52058594 6.04296875 4.4140625 C4 4 4 4 1 2 C0.67 1.34 0.34 0.68 0 0 Z " fill="#65BBC7" transform="translate(318,179)"/>
<path d="M0 0 C4.55015893 1.51671964 6.50057264 5.16891053 9 9 C8.01 9 7.02 9 6 9 C4.39453125 7.28515625 4.39453125 7.28515625 2.8125 5.0625 C2.28269531 4.33160156 1.75289062 3.60070312 1.20703125 2.84765625 C0 1 0 1 0 0 Z " fill="#BAD9D9" transform="translate(203,330)"/>
<path d="M0 0 C0.66 0.33 1.32 0.66 2 1 C-1.08632611 4.2626876 -3.93483504 7.02235218 -8 9 C-8.66 8.67 -9.32 8.34 -10 8 C-6.7 5.36 -3.4 2.72 0 0 Z " fill="#EDDECA" transform="translate(180,225)"/>
<path d="M0 0 C3 2 3 2 3.6875 5.125 C3.790625 6.07375 3.89375 7.0225 4 8 C0.73045798 7.43628586 -0.82575883 6.50037734 -3 4 C-1.68 4.33 -0.36 4.66 1 5 C0.67 3.35 0.34 1.7 0 0 Z " fill="#62B6C2" transform="translate(343,213)"/>
<path d="M0 0 C0.99 0.495 0.99 0.495 2 1 C2.6328125 3.06640625 2.6328125 3.06640625 3.125 5.5625 C3.29257813 6.38878906 3.46015625 7.21507812 3.6328125 8.06640625 C3.75398437 8.70449219 3.87515625 9.34257812 4 10 C3.01 10 2.02 10 1 10 C-0.1577506 6.52674819 -0.06866652 3.63932552 0 0 Z " fill="#CDC8BD" transform="translate(191,206)"/>
<path d="M0 0 C0.66 0.33 1.32 0.66 2 1 C-2.30055249 5.76132597 -2.30055249 5.76132597 -6 6 C-6.99 5.34 -7.98 4.68 -9 4 C-8.43410156 3.79503906 -7.86820312 3.59007812 -7.28515625 3.37890625 C-6.55167969 3.10949219 -5.81820313 2.84007812 -5.0625 2.5625 C-4.33160156 2.29566406 -3.60070312 2.02882813 -2.84765625 1.75390625 C-1.01694322 1.14613052 -1.01694322 1.14613052 0 0 Z " fill="#577187" transform="translate(274,324)"/>
<path d="M0 0 C0.33 0 0.66 0 1 0 C1 1.65 1 3.3 1 5 C2.65 5 4.3 5 6 5 C6 5.33 6 5.66 6 6 C3.69 6.33 1.38 6.66 -1 7 C-1.625 4.625 -1.625 4.625 -2 2 C-1.34 1.34 -0.68 0.68 0 0 Z " fill="#3E6C83" transform="translate(161,273)"/>
<path d="M0 0 C0.99 0 1.98 0 3 0 C3 1.98 3 3.96 3 6 C1.68 5.67 0.36 5.34 -1 5 C-0.67 3.35 -0.34 1.7 0 0 Z " fill="#373736" transform="translate(157,261)"/>
<path d="M0 0 C0.99 0 1.98 0 3 0 C3.33 0.99 3.66 1.98 4 3 C3.67 3.33 3.34 3.66 3 4 C2.63239269 6.32817964 2.29758419 8.6618385 2 11 C1.67 11 1.34 11 1 11 C1 9.02 1 7.04 1 5 C0.34 4.67 -0.32 4.34 -1 4 C-0.67 2.68 -0.34 1.36 0 0 Z " fill="#C8A685" transform="translate(159,256)"/>
<path d="M0 0 C0.99 0.33 1.98 0.66 3 1 C2.01 1.495 2.01 1.495 1 2 C0.34444881 4.52733235 0.34444881 4.52733235 0 7 C-0.66 7 -1.32 7 -2 7 C-2.33 7.66 -2.66 8.32 -3 9 C-2.25 2.25 -2.25 2.25 0 0 Z " fill="#2B7895" transform="translate(337,297)"/>
<path d="M0 0 C2.1875 0.3125 2.1875 0.3125 4 1 C0.71195019 3.91227269 -1.59885603 5.49701212 -6 6 C-5 5 -4 4 -3 3 C-2.525625 2.4225 -2.05125 1.845 -1.5625 1.25 C-1.046875 0.8375 -0.53125 0.425 0 0 Z " fill="#897451" transform="translate(200,232)"/>
<path d="M0 0 C-1.98 1.32 -3.96 2.64 -6 4 C-6.66 3.67 -7.32 3.34 -8 3 C-8 2.34 -8 1.68 -8 1 C-4.93251126 -0.86240388 -3.40254489 -1.2151946 0 0 Z " fill="#3F5772" transform="translate(188,348)"/>
<path d="M0 0 C0.66 0 1.32 0 2 0 C3.85776765 3.13498292 4.20140476 5.37471432 4 9 C1.47740939 7.02579865 1.0070192 6.03254358 0.3125 2.8125 C0.209375 1.884375 0.10625 0.95625 0 0 Z " fill="#496C83" transform="translate(260,267)"/>
<path d="M0 0 C-0.99 0.33 -1.98 0.66 -3 1 C-3 1.66 -3 2.32 -3 3 C-5.31 3 -7.62 3 -10 3 C-9.01 2.67 -8.02 2.34 -7 2 C-7 1.34 -7 0.68 -7 0 C-3.98968256 -0.93423645 -3.13349732 -1.04449911 0 0 Z " fill="#EDF7F7" transform="translate(186,266)"/>
<path d="M0 0 C0 3.38023517 -0.87455622 5.83468937 -2 9 C-2.66 9 -3.32 9 -4 9 C-3.38461538 3.46153846 -3.38461538 3.46153846 -1.4375 1.125 C-0.963125 0.75375 -0.48875 0.3825 0 0 Z " fill="#3F6C82" transform="translate(264,241)"/>
<path d="M0 0 C0 3 0 3 -1.53125 4.82421875 C-2.1809375 5.43910156 -2.830625 6.05398437 -3.5 6.6875 C-4.1496875 7.31011719 -4.799375 7.93273437 -5.46875 8.57421875 C-5.9740625 9.04472656 -6.479375 9.51523438 -7 10 C-7 7 -7 7 -4.625 4.4375 C-3.75875 3.633125 -2.8925 2.82875 -2 2 C-1.34 1.34 -0.68 0.68 0 0 Z " fill="#F5EFE8" transform="translate(173,246)"/>
<path d="M0 0 C-0.33 1.65 -0.66 3.3 -1 5 C-1.99 5 -2.98 5 -4 5 C-4.33 4.01 -4.66 3.02 -5 2 C-2 0 -2 0 0 0 Z " fill="#CA9B6F" transform="translate(168,234)"/>
<path d="M0 0 C1.0625 1.8125 1.0625 1.8125 2 4 C1.67 4.99 1.34 5.98 1 7 C-0.65 7 -2.3 7 -4 7 C-2.68 4.69 -1.36 2.38 0 0 Z " fill="#E5E4DB" transform="translate(205,229)"/>
<path d="M0 0 C0.66 0.33 1.32 0.66 2 1 C1.34 2.98 0.68 4.96 0 7 C-0.33 6.01 -0.66 5.02 -1 4 C-2.32 4.33 -3.64 4.66 -5 5 C-3.35 3.35 -1.7 1.7 0 0 Z " fill="#C0B8A8" transform="translate(190,201)"/>
<path d="M0 0 C0 3.61029169 -0.96092582 6.55806676 -2 10 C-2.66 9.67 -3.32 9.34 -4 9 C-2.25 2.25 -2.25 2.25 0 0 Z " fill="#185B76" transform="translate(190,301)"/>
<path d="M0 0 C1.093125 0.226875 2.18625 0.45375 3.3125 0.6875 C2.25 2.25 2.25 2.25 0.3125 3.6875 C-3.375 3.375 -3.375 3.375 -6.6875 2.6875 C-4.58035839 -0.41123767 -3.86755884 -0.32775922 0 0 Z " fill="#777D73" transform="translate(210.6875,207.3125)"/>
<path d="M0 0 C-0.33 0.66 -0.66 1.32 -1 2 C-3.64 2 -6.28 2 -9 2 C-8 0 -8 0 -6.1875 -0.6875 C-3.81180233 -1.02688538 -2.26664171 -0.72856341 0 0 Z " fill="#175C60" transform="translate(220,204)"/>
<path d="M0 0 C2.56616632 3.84924948 2.55097676 6.4349304 3 11 C2.01 10.34 1.02 9.68 0 9 C-0.29296875 6.8359375 -0.29296875 6.8359375 -0.1875 4.375 C-0.16042969 3.55773437 -0.13335937 2.74046875 -0.10546875 1.8984375 C-0.05326172 0.95871094 -0.05326172 0.95871094 0 0 Z " fill="#718680" transform="translate(255,269)"/>
<path d="M0 0 C0 0.66 0 1.32 0 2 C-2.875 2.625 -2.875 2.625 -6 3 C-6.66 2.34 -7.32 1.68 -8 1 C-5.29120665 -0.35439668 -2.99066732 -0.06501451 0 0 Z " fill="#3A909D" transform="translate(191,267)"/>
</svg>
